<?xml version="1.0" encoding="utf-8"?>
<!-- Generator: Adobe Illustrator 21.0.2, SVG Export Plug-In . SVG Version: 6.00 Build 0)  -->
<svg version="1.1" id="Layer_1" xmlns="http://www.w3.org/2000/svg" xmlns:xlink="http://www.w3.org/1999/xlink" x="0px" y="0px"
	 viewBox="0 0 180 180" style="enable-background:new 0 0 180 180;" xml:space="preserve">
<style type="text/css">
	.st0{fill:#4BCDB8;}
	.st1{opacity:0.4;fill:url(#SVGID_1_);}
	.st2{fill:#828282;}
	.st3{fill:#686868;}
	.st4{fill:#FFF9AA;}
</style>
<path class="st0" d="M144.8,94.5c0-0.2,0-0.3,0-0.5c0.1-1.3,0.2-2.7,0.2-4.1c0-30.4-24.6-55-55-55s-55,24.6-55,55s24.6,55,55,55
	c1.4,0,2.9-0.1,4.3-0.2c0.3-0.1,0.6-0.1,1-0.1c0,0,0.1,0,0.1,0c0,0,0.1,0,0.1,0c8-0.8,15.5-3.3,22.1-7.1c0.3-0.3,0.7-0.5,1.1-0.7
	c6.1-3.8,11.4-8.7,15.7-14.5c0.2-0.3,0.3-0.5,0.5-0.8c2.9-4.2,5.3-8.8,7-13.7c0.1-0.3,0.2-0.5,0.2-0.8c0.1-0.4,0.3-0.9,0.5-1.2
	c0-0.1,0-0.1,0.1-0.2c0.1-0.4,0.2-0.8,0.3-1.2c0-0.3,0.1-0.6,0.2-0.8c0.1-0.3,0.2-0.5,0.3-0.7c0.5-2,0.9-4,1.1-6.1
	c-0.1-0.7,0-1.3,0.2-1.8C144.8,94.8,144.8,94.7,144.8,94.5z"/>
<linearGradient id="SVGID_1_" gradientUnits="userSpaceOnUse" x1="101.7867" y1="168.8102" x2="101.7867" y2="64.1845">
	<stop  offset="0" style="stop-color:#FFFFFF"/>
	<stop  offset="0.2442" style="stop-color:#C5C5C5"/>
	<stop  offset="0.8036" style="stop-color:#343434"/>
	<stop  offset="1" style="stop-color:#000000"/>
</linearGradient>
<path class="st1" d="M144.8,94.9c0-0.1,0-0.2,0-0.2c0-0.1,0-0.2,0-0.4l-24.6-30.1l-61.4,50.2l24.7,30.2c0.4,0,0.8,0.1,1.2,0.2
	c1.2,0,2.3,0.1,3.5,0.2c0,0,0.1,0,0.1,0c0.2,0,0.3,0,0.5,0c0.2,0,0.4-0.1,0.7-0.1c0.2,0,0.4,0,0.6,0c0,0,0,0,0,0c0.2,0,0.5,0,0.7,0
	c0.2,0,0.3,0,0.5,0c0.1,0,0.2,0,0.4,0c0.1,0,0.3,0,0.4,0c0.3,0,0.6-0.1,0.9-0.1c0.1,0,0.3,0,0.4,0c0.2,0,0.3-0.1,0.5-0.1
	c0.4-0.1,0.9-0.2,1.4-0.2c0,0,0.1,0,0.1,0c0.2,0,0.3,0,0.5,0c0.3,0,0.6-0.1,0.9-0.1c0,0,0,0,0,0c0,0,0,0,0,0c0,0,0.1,0,0.1,0
	c0.2-0.1,0.5-0.1,0.7-0.1c0.3-0.1,0.6-0.1,0.9-0.1c0.3-0.1,0.6-0.2,1-0.2c0.3-0.1,0.6-0.1,1-0.2c0.1,0,0.3-0.1,0.4-0.1
	c0.3-0.1,0.5-0.1,0.8-0.2c0.2-0.1,0.5-0.1,0.8-0.2c0.2-0.1,0.3-0.1,0.5-0.2c0.3-0.1,0.7-0.2,1-0.2c0.1,0,0.3-0.1,0.4-0.1
	c0.3-0.1,0.6-0.2,1-0.3c0.2-0.1,0.4-0.1,0.6-0.2c0.1,0,0.1,0,0.2,0c0.4-0.2,0.8-0.3,1.2-0.4c0.1,0,0.2-0.1,0.3-0.1
	c0.3-0.2,0.6-0.3,1-0.4c0.3-0.1,0.6-0.3,0.9-0.3c0.3-0.2,0.6-0.3,1-0.4c0.2-0.1,0.4-0.2,0.7-0.3c0.3-0.2,0.6-0.3,1-0.4
	c0.2-0.1,0.3-0.2,0.5-0.3c0.3-0.2,0.7-0.4,1.1-0.5c0,0,0,0,0.1,0c0.2-0.1,0.5-0.3,0.8-0.4c0.2-0.1,0.4-0.2,0.6-0.3
	c0.3-0.2,0.6-0.4,1-0.5c0.3-0.2,0.7-0.4,1-0.6c0.5-0.4,1-0.7,1.5-1c0.2-0.2,0.4-0.3,0.7-0.4c0.2-0.2,0.5-0.4,0.8-0.5
	c0.2-0.1,0.3-0.2,0.5-0.3c0.1,0,0.1-0.1,0.2-0.1c0.1-0.1,0.3-0.2,0.4-0.3c0.3-0.2,0.6-0.5,0.9-0.6c0.1-0.1,0.3-0.2,0.4-0.3
	c0.3-0.3,0.6-0.6,1-0.8c0.1,0,0.1-0.1,0.2-0.1c0.1-0.1,0.2-0.1,0.2-0.2c0.1-0.1,0.1-0.1,0.2-0.2c0.1-0.1,0.2-0.1,0.3-0.2
	c0.1-0.1,0.2-0.1,0.3-0.2c0.1-0.1,0.2-0.3,0.4-0.4c0.3-0.3,0.6-0.5,0.8-0.7c0.2-0.2,0.4-0.4,0.6-0.5c0,0,0,0,0.1-0.1
	c0,0,0.1,0,0.1-0.1c0.1,0,0.1-0.1,0.2-0.1c0.2-0.2,0.4-0.4,0.6-0.6c0.1-0.1,0.3-0.3,0.4-0.4c0.3-0.5,0.7-0.9,1.2-1.2
	c0.2-0.2,0.3-0.4,0.5-0.6c0.4-0.5,0.9-0.9,1.3-1.4c0.5-0.5,1-1.1,1.5-1.6c0,0,0.1-0.1,0.1-0.1c0.1-0.1,0.3-0.5,0.4-0.5
	c0.2-0.4,0.5-0.7,0.8-1c0.1-0.2,0.2-0.3,0.3-0.5c0.3-0.7,0.8-1.3,1.4-1.9c0.2-0.5,0.5-1,0.9-1.4c0.1-0.2,0.2-0.3,0.3-0.5
	c0.3-0.4,0.6-0.8,0.9-1.2c0,0,0,0,0,0c-0.4,0.5-0.5,0.6-0.3,0.3c0.2-0.5,0.5-1,0.9-1.5c0-0.1,0-0.1,0.1-0.2c-0.6,1,0.3-0.5,0.5-1
	c0.2-0.6,0.5-1.2,0.9-1.8c0.2-0.6,0.5-1.2,0.8-1.8c0.1-0.2,0.2-0.3,0.2-0.3c0-0.1,0.1-0.2,0.1-0.3c0.2-0.5,0.4-0.9,0.5-1.4
	c0.1-0.3,0.2-0.5,0.3-0.7c0.2-0.7,0.5-1.4,0.6-2.2c0.1-0.5,0.3-0.9,0.5-1.3c0-0.5,0.2-0.9,0.4-1.3c0-0.3,0.1-0.6,0.2-0.8
	c0.1-0.5,0.3-1,0.5-1.5c0-0.4,0.1-0.7,0.2-1c0,0,0-0.1,0-0.1c0.1-0.3,0.1-0.6,0.2-0.9c0,0,0,0,0-0.1c0-0.5,0.1-0.9,0.2-1.3
	c0-0.5,0.1-1.1,0.2-1.6c0-0.1,0-0.1,0-0.2C144.5,96.2,144.6,95.5,144.8,94.9z"/>
<ellipse transform="matrix(0.9998 -1.819947e-02 1.819947e-02 0.9998 -1.9777 1.1928)" class="st2" cx="64.5" cy="109.3" rx="4.6" ry="4.6"/>
<path class="st3" d="M120.2,114.5l-59.9,1.1c-1.1,0-2-0.9-2-2l-0.8-46.3c0-1.1,0.9-2,2-2l59.9-1.1c1.1,0,2,0.9,2,2l0.8,46.3
	C122.2,113.6,121.3,114.5,120.2,114.5z"/>
<rect x="68.2" y="54.1" transform="matrix(0.9998 -1.819947e-02 1.819947e-02 0.9998 -1.1154 1.2887)" class="st4" width="4" height="15.7"/>
<rect x="87.3" y="53.7" transform="matrix(0.9998 -1.819947e-02 1.819947e-02 0.9998 -1.1059 1.6359)" class="st4" width="4" height="15.7"/>
<rect x="88.4" y="110.2" transform="matrix(0.9998 -1.819947e-02 1.819947e-02 0.9998 -2.1335 1.664)" class="st4" width="4" height="15.7"/>
<rect x="69.3" y="110.5" transform="matrix(0.9998 -1.819947e-02 1.819947e-02 0.9998 -2.1429 1.3168)" class="st4" width="4" height="15.7"/>
<rect x="106.7" y="53.4" transform="matrix(0.9998 -1.819947e-02 1.819947e-02 0.9998 -1.0963 1.9878)" class="st4" width="4" height="15.7"/>
<rect x="107.7" y="109.8" transform="matrix(0.9998 -1.819947e-02 1.819947e-02 0.9998 -2.1239 2.0159)" class="st4" width="4" height="15.7"/>
<rect x="77.8" y="53.9" transform="matrix(0.9998 -1.819947e-02 1.819947e-02 0.9998 -1.1106 1.4623)" class="st4" width="4" height="15.7"/>
<rect x="98" y="110" transform="matrix(0.9998 -1.819947e-02 1.819947e-02 0.9998 -2.1287 1.8399)" class="st4" width="4" height="15.7"/>
<rect x="78.8" y="110.4" transform="matrix(0.9998 -1.819947e-02 1.819947e-02 0.9998 -2.1382 1.4904)" class="st4" width="4" height="15.7"/>
<rect x="97" y="53.5" transform="matrix(0.9998 -1.819947e-02 1.819947e-02 0.9998 -1.1011 1.8119)" class="st4" width="4" height="15.7"/>
<polygon class="st4" points="70,49.1 68.8,56.6 71.5,56.5 "/>
<polygon class="st4" points="71.5,131.3 70,123.8 72.8,123.7 "/>
<polygon class="st4" points="108.4,48.4 107.2,55.9 110,55.8 "/>
<polygon class="st4" points="98.8,48.5 97.5,56.1 100.3,56 "/>
<polygon class="st4" points="89.2,48.7 88,56.2 90.8,56.2 "/>
<polygon class="st4" points="79.6,48.9 78.3,56.4 81.1,56.4 "/>
<polygon class="st4" points="100.3,130.9 98.7,123.5 101.5,123.4 "/>
<polygon class="st4" points="90.7,131.1 89.2,123.6 92,123.6 "/>
<polygon class="st4" points="81.1,131.3 79.5,123.8 82.3,123.8 "/>
<polygon class="st4" points="109.9,130.8 108.4,123.3 111.2,123.2 "/>
</svg>
