<?xml version="1.0" encoding="utf-8"?>
<!-- Generator: Adobe Illustrator 21.0.2, SVG Export Plug-In . SVG Version: 6.00 Build 0)  -->
<svg version="1.1" id="Layer_1" xmlns="http://www.w3.org/2000/svg" xmlns:xlink="http://www.w3.org/1999/xlink" x="0px" y="0px"
	 viewBox="0 0 180 180" style="enable-background:new 0 0 180 180;" xml:space="preserve">
<style type="text/css">
	.st0{fill:#4BCDB8;}
	.st1{font-family:'OCRAStd';}
	.st2{font-size:26.9859px;}
	.st3{opacity:0.2;}
	.st4{font-size:34.965px;}
</style>
<path class="st0" d="M144.8,94.6c0-0.2,0-0.3,0-0.5c0.1-1.3,0.2-2.7,0.2-4.1c0-30.4-24.6-55-55-55S35,59.6,35,90s24.6,55,55,55
	c1.4,0,2.9-0.1,4.3-0.2c0.3-0.1,0.6-0.1,1-0.1h0.1h0.1c8-0.8,15.5-3.3,22.1-7.1c0.3-0.3,0.7-0.5,1.1-0.7c6.1-3.8,11.4-8.7,15.7-14.5
	c0.2-0.3,0.3-0.5,0.5-0.8c2.9-4.2,5.3-8.8,7-13.7c0.1-0.3,0.2-0.5,0.2-0.8c0.1-0.4,0.3-0.9,0.5-1.2c0-0.1,0-0.1,0.1-0.2
	c0.1-0.4,0.2-0.8,0.3-1.2c0-0.3,0.1-0.6,0.2-0.8c0.1-0.3,0.2-0.5,0.3-0.7c0.5-2,0.9-4,1.1-6.1c-0.1-0.7,0-1.3,0.2-1.8
	C144.8,94.9,144.8,94.8,144.8,94.6z"/>
<text transform="matrix(0.6862 -1.028303e-02 1.498483e-02 0.9999 51.4585 98.4838)" class="st1 st2">&lt;html&gt;</text>
<text transform="matrix(0.5362 7.936397e-03 -0.636 -0.7717 51.4587 98.4836)" class="st3 st1 st4">&lt;html&gt;</text>
</svg>
